<svg width="323" height="69" viewBox="0 0 323 69" fill="none" xmlns="http://www.w3.org/2000/svg">
<rect x="0.25" y="0.25" width="322.5" height="68.5" rx="20.25" fill="url(#paint0_linear_381_8922)" stroke="url(#paint1_linear_381_8922)" stroke-width="0.5"/>
<path d="M70.0693 39.6123C67.8831 39.6123 66.266 39.0358 65.2178 37.8828C64.1696 36.7298 63.6455 34.9367 63.6455 32.5034C63.6455 27.7642 65.798 25.3945 70.103 25.3945C70.7319 25.3945 71.3421 25.4619 71.9336 25.5967C72.5251 25.724 73.0042 25.8849 73.3711 26.0796C73.738 26.2743 73.9214 26.4614 73.9214 26.6411C73.9214 26.7534 73.8802 26.9032 73.7979 27.0903C73.723 27.2775 73.6331 27.4422 73.5283 27.5845C73.4235 27.7267 73.3299 27.7979 73.2476 27.7979C73.2101 27.7979 73.1053 27.7492 72.9331 27.6519C72.5438 27.4422 72.1357 27.2663 71.709 27.124C71.2822 26.9818 70.7619 26.9106 70.1479 26.9106C68.5382 26.9106 67.3516 27.3599 66.5879 28.2583C65.8317 29.1493 65.4536 30.5718 65.4536 32.5259C65.4536 34.4351 65.828 35.8426 66.5767 36.7485C67.3328 37.647 68.4971 38.0962 70.0693 38.0962C70.7282 38.0962 71.2935 38.0176 71.7651 37.8604C72.2368 37.7031 72.6898 37.5085 73.124 37.2764C73.3337 37.1641 73.4609 37.1079 73.5059 37.1079C73.5882 37.1079 73.6818 37.179 73.7866 37.3213C73.8989 37.4635 73.9963 37.6245 74.0786 37.8042C74.161 37.9764 74.2021 38.0999 74.2021 38.1748C74.2021 38.362 74.0112 38.5716 73.6294 38.8037C73.255 39.0283 72.7497 39.2192 72.1133 39.3765C71.4844 39.5337 70.8031 39.6123 70.0693 39.6123ZM79.3174 39.6123C78.6511 39.6123 78.0558 39.4102 77.5318 39.0059C77.0077 38.6016 76.7456 37.8866 76.7456 36.8608V24.9229C76.7456 24.6309 77.0114 24.4849 77.543 24.4849H77.6328C78.1569 24.4849 78.419 24.6309 78.419 24.9229V36.7036C78.419 37.2502 78.5163 37.632 78.711 37.8491C78.9056 38.0662 79.1677 38.1748 79.4971 38.1748C79.7442 38.1748 79.9388 38.1598 80.0811 38.1299C80.2233 38.0999 80.3169 38.085 80.3618 38.085C80.4816 38.085 80.579 38.2048 80.6538 38.4443C80.7362 38.6839 80.7774 38.8748 80.7774 39.0171C80.7774 39.4139 80.2907 39.6123 79.3174 39.6123ZM83.8262 26.54C83.2946 26.54 83.0288 26.394 83.0288 26.1021V24.9229C83.0288 24.6309 83.2946 24.4849 83.8262 24.4849H84.062C84.6011 24.4849 84.8706 24.6309 84.8706 24.9229V26.1021C84.8706 26.394 84.6011 26.54 84.062 26.54H83.8262ZM83.9048 39.5337C83.3732 39.5337 83.1075 39.3877 83.1075 39.0957V29.46C83.1075 29.168 83.3732 29.022 83.9048 29.022H83.9834C84.5225 29.022 84.792 29.168 84.792 29.46V39.0957C84.792 39.3877 84.5225 39.5337 83.9834 39.5337H83.9048ZM92.7711 39.6123C91.1164 39.6123 89.8811 39.1893 89.065 38.3433C88.2564 37.4897 87.8521 36.1196 87.8521 34.2329C87.8521 32.3237 88.3051 30.9648 89.211 30.1562C90.1169 29.3477 91.2437 28.9434 92.5914 28.9434C93.093 28.9434 93.5759 28.9883 94.0401 29.0781C94.5043 29.1605 94.8786 29.2728 95.1631 29.415C95.4477 29.5573 95.5899 29.707 95.5899 29.8643C95.5899 29.9691 95.5525 30.1076 95.4776 30.2798C95.4102 30.452 95.3241 30.6055 95.2193 30.7402C95.122 30.8675 95.0321 30.9312 94.9498 30.9312C94.9273 30.9312 94.8936 30.9237 94.8487 30.9087C94.8038 30.8862 94.7626 30.8675 94.7252 30.8525C94.0513 30.5381 93.3251 30.3809 92.5464 30.3809C91.6255 30.3809 90.9143 30.6841 90.4127 31.2905C89.911 31.8895 89.6602 32.8553 89.6602 34.188C89.6602 35.1313 89.7613 35.895 89.9634 36.479C90.1656 37.0555 90.4913 37.4823 90.9405 37.7593C91.3972 38.0363 92.0036 38.1748 92.7598 38.1748C93.5909 38.1748 94.3396 38.0026 95.0059 37.6582C95.0733 37.6432 95.122 37.6283 95.1519 37.6133C95.1893 37.5908 95.2156 37.5796 95.2305 37.5796C95.3129 37.5796 95.4065 37.6432 95.5113 37.7705C95.6161 37.8978 95.706 38.0438 95.7808 38.2085C95.8632 38.3732 95.9044 38.5042 95.9044 38.6016C95.9044 38.7588 95.7621 38.916 95.4776 39.0732C95.1931 39.2305 94.8075 39.3615 94.3209 39.4663C93.8417 39.5636 93.3251 39.6123 92.7711 39.6123ZM99.4137 39.5337C98.8746 39.5337 98.6051 39.3877 98.6051 39.0957V24.9229C98.6051 24.6309 98.8746 24.4849 99.4137 24.4849H99.4923C100.024 24.4849 100.29 24.6309 100.29 24.9229V33.8511H100.368L104.187 29.2915C104.329 29.1118 104.681 29.022 105.242 29.022H105.31C105.542 29.022 105.718 29.0444 105.837 29.0894C105.957 29.1343 106.017 29.1942 106.017 29.269C106.017 29.3813 105.95 29.5161 105.815 29.6733L102.098 34.0645L106.219 38.9385C106.332 39.0658 106.388 39.1706 106.388 39.2529C106.388 39.3652 106.324 39.4401 106.197 39.4775C106.07 39.515 105.845 39.5337 105.523 39.5337H105.433C105.156 39.5337 104.932 39.5187 104.759 39.4888C104.587 39.4588 104.452 39.3877 104.355 39.2754L100.368 34.5361H100.29V39.0957C100.29 39.3877 100.024 39.5337 99.4923 39.5337H99.4137ZM115.035 39.5337C114.503 39.5337 114.237 39.3877 114.237 39.0957V24.9229C114.237 24.6309 114.503 24.4849 115.035 24.4849H115.113C115.652 24.4849 115.922 24.6309 115.922 24.9229V30.3135C116.311 29.9167 116.768 29.591 117.292 29.3364C117.816 29.0744 118.374 28.9434 118.965 28.9434C119.804 28.9434 120.541 29.1792 121.178 29.6509C121.822 30.1226 122.144 30.9611 122.144 32.1665V39.0957C122.144 39.3877 121.878 39.5337 121.346 39.5337H121.268C120.729 39.5337 120.459 39.3877 120.459 39.0957V32.335C120.459 31.7285 120.287 31.2531 119.943 30.9087C119.598 30.5643 119.093 30.3921 118.426 30.3921C117.985 30.3921 117.577 30.4969 117.202 30.7065C116.835 30.9162 116.528 31.1445 116.281 31.3916C116.042 31.6312 115.922 31.766 115.922 31.7959V39.0957C115.922 39.3877 115.652 39.5337 115.113 39.5337H115.035ZM129.921 39.6123C128.266 39.6123 127.034 39.1818 126.226 38.3208C125.425 37.4523 125.024 36.1271 125.024 34.3452C125.024 32.5783 125.417 31.2381 126.203 30.3247C126.989 29.4038 128.146 28.9434 129.673 28.9434C131.036 28.9434 132.062 29.3851 132.751 30.2686C133.447 31.152 133.795 32.4473 133.795 34.1543C133.795 34.2292 133.754 34.334 133.672 34.4688C133.597 34.596 133.503 34.7121 133.391 34.8169C133.286 34.9142 133.196 34.9629 133.121 34.9629H126.821C126.903 36.0785 127.188 36.8945 127.674 37.4111C128.169 37.9202 128.91 38.1748 129.898 38.1748C130.452 38.1748 130.928 38.1074 131.324 37.9727C131.729 37.8379 132.118 37.6732 132.492 37.4785C132.53 37.4635 132.586 37.4373 132.661 37.3999C132.736 37.3625 132.788 37.3438 132.818 37.3438C132.9 37.3438 132.994 37.4111 133.099 37.5459C133.211 37.6732 133.305 37.8192 133.38 37.9839C133.462 38.1411 133.503 38.2572 133.503 38.332C133.503 38.4967 133.338 38.6802 133.009 38.8823C132.679 39.0845 132.238 39.2567 131.684 39.3989C131.137 39.5412 130.549 39.6123 129.921 39.6123ZM132.009 33.5254C132.009 31.429 131.212 30.3809 129.617 30.3809C127.903 30.3809 126.971 31.429 126.821 33.5254H132.009ZM137.54 39.5337C137.256 39.5337 137.05 39.5 136.923 39.4326C136.795 39.3577 136.732 39.2454 136.732 39.0957V32.0879C136.732 31.2194 136.69 30.5942 136.608 30.2124C136.526 29.8231 136.485 29.6097 136.485 29.5723C136.485 29.4076 136.608 29.2915 136.855 29.2241C137.11 29.1493 137.349 29.1118 137.574 29.1118C137.754 29.1118 137.888 29.2091 137.978 29.4038C138.068 29.591 138.147 29.8568 138.214 30.2012L138.27 30.437C138.981 29.4412 139.753 28.9434 140.584 28.9434C140.965 28.9434 141.254 29.0145 141.448 29.1567C141.643 29.2915 141.74 29.4749 141.74 29.707C141.74 29.9316 141.699 30.1712 141.617 30.4258C141.542 30.6729 141.452 30.7964 141.347 30.7964C141.295 30.7964 141.201 30.7739 141.067 30.729C140.947 30.6766 140.827 30.6392 140.707 30.6167C140.587 30.5868 140.434 30.5718 140.247 30.5718C139.94 30.5718 139.648 30.6616 139.371 30.8413C139.101 31.021 138.873 31.2194 138.686 31.4365C138.499 31.6536 138.405 31.7734 138.405 31.7959V39.0957C138.405 39.2454 138.341 39.3577 138.214 39.4326C138.087 39.5 137.888 39.5337 137.619 39.5337H137.54ZM148.462 39.6123C146.807 39.6123 145.575 39.1818 144.767 38.3208C143.966 37.4523 143.565 36.1271 143.565 34.3452C143.565 32.5783 143.958 31.2381 144.744 30.3247C145.53 29.4038 146.687 28.9434 148.215 28.9434C149.577 28.9434 150.603 29.3851 151.292 30.2686C151.988 31.152 152.336 32.4473 152.336 34.1543C152.336 34.2292 152.295 34.334 152.213 34.4688C152.138 34.596 152.044 34.7121 151.932 34.8169C151.827 34.9142 151.737 34.9629 151.662 34.9629H145.362C145.444 36.0785 145.729 36.8945 146.216 37.4111C146.71 37.9202 147.451 38.1748 148.439 38.1748C148.993 38.1748 149.469 38.1074 149.865 37.9727C150.27 37.8379 150.659 37.6732 151.033 37.4785C151.071 37.4635 151.127 37.4373 151.202 37.3999C151.277 37.3625 151.329 37.3438 151.359 37.3438C151.441 37.3438 151.535 37.4111 151.64 37.5459C151.752 37.6732 151.846 37.8192 151.921 37.9839C152.003 38.1411 152.044 38.2572 152.044 38.332C152.044 38.4967 151.879 38.6802 151.55 38.8823C151.221 39.0845 150.779 39.2567 150.225 39.3989C149.678 39.5412 149.091 39.6123 148.462 39.6123ZM150.55 33.5254C150.55 31.429 149.753 30.3809 148.158 30.3809C146.444 30.3809 145.512 31.429 145.362 33.5254H150.55ZM163.229 39.6123C162.563 39.6123 161.968 39.4102 161.444 39.0059C160.919 38.6016 160.657 37.8866 160.657 36.8608V30.4932H159.658C159.516 30.4932 159.411 30.4482 159.343 30.3584C159.284 30.2611 159.254 30.1076 159.254 29.8979V29.6509C159.254 29.4412 159.284 29.2915 159.343 29.2017C159.411 29.1043 159.516 29.0557 159.658 29.0557H160.657L160.893 26.9668C160.908 26.6748 161.122 26.5288 161.533 26.5288H161.724C161.934 26.5288 162.087 26.5662 162.185 26.6411C162.282 26.7085 162.331 26.8171 162.331 26.9668V29.0557H164.004C164.146 29.0557 164.247 29.1043 164.307 29.2017C164.375 29.2915 164.408 29.4412 164.408 29.6509V29.8979C164.408 30.1076 164.375 30.2611 164.307 30.3584C164.247 30.4482 164.146 30.4932 164.004 30.4932H162.331V36.7036C162.331 37.2502 162.424 37.632 162.612 37.8491C162.806 38.0662 163.068 38.1748 163.398 38.1748C163.652 38.1748 163.847 38.1598 163.982 38.1299C164.124 38.0999 164.217 38.085 164.262 38.085C164.382 38.085 164.48 38.2048 164.554 38.4443C164.637 38.6839 164.678 38.8748 164.678 39.0171C164.678 39.4139 164.195 39.6123 163.229 39.6123ZM171.321 39.6123C169.816 39.6123 168.666 39.1631 167.873 38.2646C167.087 37.3587 166.694 36.0448 166.694 34.3228C166.694 32.6007 167.094 31.2756 167.895 30.3472C168.696 29.4113 169.838 28.9434 171.321 28.9434C172.788 28.9434 173.911 29.4076 174.69 30.3359C175.468 31.2568 175.858 32.5858 175.858 34.3228C175.858 36.0522 175.472 37.3662 174.701 38.2646C173.937 39.1631 172.81 39.6123 171.321 39.6123ZM171.264 38.1748C172.238 38.1748 172.956 37.8604 173.421 37.2314C173.885 36.5951 174.117 35.6143 174.117 34.2891C174.117 32.9564 173.885 31.9718 173.421 31.3354C172.956 30.6991 172.238 30.3809 171.264 30.3809C170.299 30.3809 169.587 30.6991 169.131 31.3354C168.674 31.9644 168.446 32.9489 168.446 34.2891C168.446 35.6217 168.67 36.6025 169.119 37.2314C169.576 37.8604 170.291 38.1748 171.264 38.1748ZM184.83 39.5337C184.546 39.5337 184.34 39.5 184.213 39.4326C184.085 39.3577 184.022 39.2454 184.022 39.0957V32.0879C184.022 31.2194 183.981 30.5942 183.898 30.2124C183.816 29.8231 183.775 29.6097 183.775 29.5723C183.775 29.4076 183.898 29.2915 184.145 29.2241C184.4 29.1493 184.639 29.1118 184.864 29.1118C185.044 29.1118 185.178 29.2091 185.268 29.4038C185.358 29.591 185.437 29.8568 185.504 30.2012L185.56 30.437C186.272 29.4412 187.043 28.9434 187.874 28.9434C188.256 28.9434 188.544 29.0145 188.739 29.1567C188.933 29.2915 189.031 29.4749 189.031 29.707C189.031 29.9316 188.989 30.1712 188.907 30.4258C188.832 30.6729 188.742 30.7964 188.637 30.7964C188.585 30.7964 188.491 30.7739 188.357 30.729C188.237 30.6766 188.117 30.6392 187.997 30.6167C187.878 30.5868 187.724 30.5718 187.537 30.5718C187.23 30.5718 186.938 30.6616 186.661 30.8413C186.391 31.021 186.163 31.2194 185.976 31.4365C185.789 31.6536 185.695 31.7734 185.695 31.7959V39.0957C185.695 39.2454 185.631 39.3577 185.504 39.4326C185.377 39.5 185.178 39.5337 184.909 39.5337H184.83ZM195.752 39.6123C194.097 39.6123 192.866 39.1818 192.057 38.3208C191.256 37.4523 190.855 36.1271 190.855 34.3452C190.855 32.5783 191.248 31.2381 192.034 30.3247C192.821 29.4038 193.977 28.9434 195.505 28.9434C196.867 28.9434 197.893 29.3851 198.582 30.2686C199.278 31.152 199.626 32.4473 199.626 34.1543C199.626 34.2292 199.585 34.334 199.503 34.4688C199.428 34.596 199.334 34.7121 199.222 34.8169C199.117 34.9142 199.027 34.9629 198.952 34.9629H192.652C192.735 36.0785 193.019 36.8945 193.506 37.4111C194 37.9202 194.741 38.1748 195.729 38.1748C196.283 38.1748 196.759 38.1074 197.156 37.9727C197.56 37.8379 197.949 37.6732 198.324 37.4785C198.361 37.4635 198.417 37.4373 198.492 37.3999C198.567 37.3625 198.619 37.3438 198.649 37.3438C198.732 37.3438 198.825 37.4111 198.93 37.5459C199.042 37.6732 199.136 37.8192 199.211 37.9839C199.293 38.1411 199.334 38.2572 199.334 38.332C199.334 38.4967 199.17 38.6802 198.84 38.8823C198.511 39.0845 198.069 39.2567 197.515 39.3989C196.968 39.5412 196.381 39.6123 195.752 39.6123ZM197.841 33.5254C197.841 31.429 197.043 30.3809 195.449 30.3809C193.734 30.3809 192.802 31.429 192.652 33.5254H197.841ZM205.82 43.7339C204.547 43.7339 203.54 43.5355 202.799 43.1387C202.057 42.7419 201.687 42.1167 201.687 41.2632C201.687 40.6792 201.855 40.1701 202.192 39.7358C202.529 39.3016 202.967 38.9759 203.506 38.7588L203.529 38.7139C203.267 38.5117 203.064 38.2796 202.922 38.0176C202.787 37.7555 202.72 37.4448 202.72 37.0854C202.72 36.217 203.094 35.5207 203.843 34.9966C203.282 34.7271 202.855 34.349 202.563 33.8623C202.271 33.3682 202.125 32.8141 202.125 32.2002C202.125 31.5863 202.275 31.0322 202.574 30.5381C202.881 30.0439 203.33 29.6546 203.922 29.3701C204.513 29.0856 205.224 28.9434 206.055 28.9434C206.497 28.9434 206.89 28.9808 207.235 29.0557H210.862C211.004 29.0557 211.105 29.1043 211.165 29.2017C211.233 29.2915 211.266 29.4412 211.266 29.6509V29.8979C211.266 30.1076 211.233 30.2611 211.165 30.3584C211.105 30.4482 211.004 30.4932 210.862 30.4932C210.36 30.4932 209.896 30.4744 209.47 30.437L209.447 30.4707C209.619 30.7103 209.747 30.9798 209.829 31.2793C209.919 31.5713 209.964 31.8783 209.964 32.2002C209.964 32.8141 209.81 33.3682 209.503 33.8623C209.204 34.3564 208.758 34.7458 208.167 35.0303C207.583 35.3148 206.872 35.457 206.033 35.457C205.404 35.4795 204.929 35.5955 204.607 35.8052C204.292 36.0148 204.135 36.3592 204.135 36.8384C204.135 37.1903 204.247 37.4598 204.472 37.647C204.704 37.8341 204.992 37.9652 205.337 38.04C205.681 38.1149 206.16 38.186 206.774 38.2534L207.358 38.3208C207.98 38.4032 208.5 38.5155 208.919 38.6577C209.339 38.8 209.683 39.0358 209.952 39.3652C210.229 39.6947 210.368 40.1476 210.368 40.7241C210.368 41.6899 209.982 42.4312 209.211 42.9478C208.44 43.4718 207.31 43.7339 205.82 43.7339ZM206.033 34.1318C206.767 34.1318 207.351 33.9821 207.785 33.6826C208.219 33.3831 208.436 32.8927 208.436 32.2114C208.436 30.9237 207.635 30.2798 206.033 30.2798C204.453 30.2798 203.663 30.9237 203.663 32.2114C203.663 32.8927 203.877 33.3831 204.304 33.6826C204.738 33.9821 205.314 34.1318 206.033 34.1318ZM206.033 42.375C206.961 42.375 207.65 42.2515 208.099 42.0044C208.549 41.7648 208.773 41.3979 208.773 40.9038C208.773 40.5819 208.653 40.3311 208.414 40.1514C208.174 39.9792 207.879 39.8556 207.527 39.7808C207.182 39.7134 206.726 39.6497 206.157 39.5898C205.767 39.5449 205.445 39.5037 205.191 39.4663C204.944 39.4289 204.715 39.3765 204.506 39.3091C203.622 39.6834 203.18 40.2262 203.18 40.9375C203.18 41.8958 204.131 42.375 206.033 42.375ZM214.45 26.54C213.918 26.54 213.653 26.394 213.653 26.1021V24.9229C213.653 24.6309 213.918 24.4849 214.45 24.4849H214.686C215.225 24.4849 215.494 24.6309 215.494 24.9229V26.1021C215.494 26.394 215.225 26.54 214.686 26.54H214.45ZM214.529 39.5337C213.997 39.5337 213.731 39.3877 213.731 39.0957V29.46C213.731 29.168 213.997 29.022 214.529 29.022H214.607C215.146 29.022 215.416 29.168 215.416 29.46V39.0957C215.416 39.3877 215.146 39.5337 214.607 39.5337H214.529ZM221.317 39.6909C220.756 39.6909 220.232 39.6198 219.745 39.4775C219.258 39.3353 218.869 39.1631 218.577 38.9609C218.293 38.7513 218.15 38.5679 218.15 38.4106C218.15 38.3358 218.188 38.216 218.263 38.0513C218.345 37.8866 218.439 37.7406 218.543 37.6133C218.656 37.4785 218.757 37.4111 218.847 37.4111C218.869 37.4111 218.936 37.4486 219.049 37.5234C219.348 37.7181 219.663 37.8828 219.992 38.0176C220.329 38.1523 220.73 38.2197 221.194 38.2197C222.496 38.2197 223.148 37.6807 223.148 36.6025C223.148 36.2956 223.084 36.0373 222.957 35.8276C222.837 35.618 222.631 35.4346 222.339 35.2773C222.055 35.1126 221.662 34.9554 221.16 34.8057C220.441 34.596 219.88 34.3564 219.475 34.0869C219.079 33.8174 218.798 33.5029 218.633 33.1436C218.468 32.7767 218.386 32.335 218.386 31.8184C218.386 31.2643 218.525 30.7664 218.802 30.3247C219.086 29.883 219.479 29.5386 219.981 29.2915C220.49 29.0444 221.063 28.9209 221.699 28.9209C222.141 28.9209 222.564 28.9621 222.968 29.0444C223.38 29.1268 223.709 29.2354 223.956 29.3701C224.211 29.4974 224.338 29.6322 224.338 29.7744C224.338 29.8792 224.301 30.0215 224.226 30.2012C224.159 30.3734 224.072 30.5269 223.968 30.6616C223.863 30.7889 223.769 30.8525 223.687 30.8525C223.672 30.8525 223.578 30.8076 223.406 30.7178C223.234 30.6204 223.013 30.5343 222.744 30.4595C222.481 30.3771 222.189 30.3359 221.868 30.3359C221.358 30.3359 220.935 30.452 220.598 30.6841C220.269 30.9087 220.104 31.2119 220.104 31.5938C220.104 32.043 220.224 32.4023 220.464 32.6719C220.703 32.9414 221.1 33.1623 221.654 33.3345C222.508 33.5965 223.159 33.8586 223.608 34.1206C224.057 34.3826 224.376 34.7046 224.563 35.0864C224.758 35.4608 224.855 35.9549 224.855 36.5688C224.855 37.1528 224.698 37.6844 224.383 38.1636C224.069 38.6353 223.642 39.0096 223.103 39.2866C222.564 39.5562 221.969 39.6909 221.317 39.6909ZM230.633 39.6123C229.966 39.6123 229.371 39.4102 228.847 39.0059C228.323 38.6016 228.061 37.8866 228.061 36.8608V30.4932H227.061C226.919 30.4932 226.814 30.4482 226.747 30.3584C226.687 30.2611 226.657 30.1076 226.657 29.8979V29.6509C226.657 29.4412 226.687 29.2915 226.747 29.2017C226.814 29.1043 226.919 29.0557 227.061 29.0557H228.061L228.297 26.9668C228.312 26.6748 228.525 26.5288 228.937 26.5288H229.128C229.337 26.5288 229.491 26.5662 229.588 26.6411C229.686 26.7085 229.734 26.8171 229.734 26.9668V29.0557H231.408C231.55 29.0557 231.651 29.1043 231.711 29.2017C231.778 29.2915 231.812 29.4412 231.812 29.6509V29.8979C231.812 30.1076 231.778 30.2611 231.711 30.3584C231.651 30.4482 231.55 30.4932 231.408 30.4932H229.734V36.7036C229.734 37.2502 229.828 37.632 230.015 37.8491C230.21 38.0662 230.472 38.1748 230.801 38.1748C231.056 38.1748 231.25 38.1598 231.385 38.1299C231.527 38.0999 231.621 38.085 231.666 38.085C231.786 38.085 231.883 38.2048 231.958 38.4443C232.04 38.6839 232.081 38.8748 232.081 39.0171C232.081 39.4139 231.599 39.6123 230.633 39.6123ZM238.994 39.6123C237.339 39.6123 236.107 39.1818 235.299 38.3208C234.498 37.4523 234.097 36.1271 234.097 34.3452C234.097 32.5783 234.49 31.2381 235.276 30.3247C236.062 29.4038 237.219 28.9434 238.746 28.9434C240.109 28.9434 241.135 29.3851 241.824 30.2686C242.52 31.152 242.868 32.4473 242.868 34.1543C242.868 34.2292 242.827 34.334 242.745 34.4688C242.67 34.596 242.576 34.7121 242.464 34.8169C242.359 34.9142 242.269 34.9629 242.194 34.9629H235.894C235.976 36.0785 236.261 36.8945 236.747 37.4111C237.242 37.9202 237.983 38.1748 238.971 38.1748C239.525 38.1748 240.001 38.1074 240.397 37.9727C240.802 37.8379 241.191 37.6732 241.565 37.4785C241.603 37.4635 241.659 37.4373 241.734 37.3999C241.809 37.3625 241.861 37.3438 241.891 37.3438C241.973 37.3438 242.067 37.4111 242.172 37.5459C242.284 37.6732 242.378 37.8192 242.453 37.9839C242.535 38.1411 242.576 38.2572 242.576 38.332C242.576 38.4967 242.411 38.6802 242.082 38.8823C241.753 39.0845 241.311 39.2567 240.757 39.3989C240.21 39.5412 239.622 39.6123 238.994 39.6123ZM241.082 33.5254C241.082 31.429 240.285 30.3809 238.69 30.3809C236.976 30.3809 236.044 31.429 235.894 33.5254H241.082ZM246.613 39.5337C246.329 39.5337 246.123 39.5 245.996 39.4326C245.868 39.3577 245.805 39.2454 245.805 39.0957V32.0879C245.805 31.2194 245.763 30.5942 245.681 30.2124C245.599 29.8231 245.558 29.6097 245.558 29.5723C245.558 29.4076 245.681 29.2915 245.928 29.2241C246.183 29.1493 246.422 29.1118 246.647 29.1118C246.827 29.1118 246.961 29.2091 247.051 29.4038C247.141 29.591 247.22 29.8568 247.287 30.2012L247.343 30.437C248.054 29.4412 248.826 28.9434 249.657 28.9434C250.038 28.9434 250.327 29.0145 250.521 29.1567C250.716 29.2915 250.813 29.4749 250.813 29.707C250.813 29.9316 250.772 30.1712 250.69 30.4258C250.615 30.6729 250.525 30.7964 250.42 30.7964C250.368 30.7964 250.274 30.7739 250.14 30.729C250.02 30.6766 249.9 30.6392 249.78 30.6167C249.66 30.5868 249.507 30.5718 249.32 30.5718C249.013 30.5718 248.721 30.6616 248.444 30.8413C248.174 31.021 247.946 31.2194 247.759 31.4365C247.572 31.6536 247.478 31.7734 247.478 31.7959V39.0957C247.478 39.2454 247.414 39.3577 247.287 39.4326C247.16 39.5 246.961 39.5337 246.692 39.5337H246.613Z" fill="#D8D8D8"/>
<defs>
<linearGradient id="paint0_linear_381_8922" x1="71.34" y1="7.3" x2="75.7311" y2="74.1351" gradientUnits="userSpaceOnUse">
<stop stop-color="#5A6870" stop-opacity="0.4"/>
<stop offset="1" stop-color="#0D373C" stop-opacity="0.4"/>
</linearGradient>
<linearGradient id="paint1_linear_381_8922" x1="161.5" y1="0.5" x2="161.5" y2="68.5" gradientUnits="userSpaceOnUse">
<stop stop-color="#858585"/>
<stop offset="1"/>
</linearGradient>
</defs>
</svg>
